<?xml version="1.0" standalone="no"?>
<!DOCTYPE svg PUBLIC "-//W3C//DTD SVG 20010904//EN"
 "http://www.w3.org/TR/2001/REC-SVG-20010904/DTD/svg10.dtd">
<svg version="1.0" xmlns="http://www.w3.org/2000/svg"
 width="1280.000000pt" height="1230.000000pt" viewBox="0 0 1280.000000 1230.000000"
 preserveAspectRatio="xMidYMid meet">
<metadata>
Created by potrace 1.15, written by Peter Selinger 2001-2017
</metadata>
<g transform="translate(0.000000,1230.000000) scale(0.100000,-0.100000)"
fill="#000000" stroke="none">
<path d="M7120 12286 c-457 -66 -792 -271 -1044 -640 -148 -216 -232 -486
-243 -776 -16 -439 116 -779 422 -1086 222 -223 456 -353 748 -416 86 -19 134
-22 312 -22 213 -1 269 5 422 45 97 25 186 60 286 110 437 220 703 590 777
1079 14 97 15 333 0 441 -46 341 -168 579 -429 839 -234 232 -476 365 -756
415 -125 22 -376 28 -495 11z"/>
<path d="M1361 10061 c-23 -23 -23 -21 -26 -241 -2 -85 -3 -168 -4 -185 -2
-69 48 -179 164 -360 70 -110 75 -120 59 -132 -10 -7 -39 -13 -64 -13 -87 0
-83 16 -77 -336 6 -336 14 -434 83 -988 l46 -370 140 -200 c192 -274 430 -591
621 -829 150 -185 159 -200 154 -232 -4 -26 -1 -36 15 -47 20 -13 20 -14 -7
-131 -35 -156 -82 -314 -209 -707 -109 -338 -128 -403 -170 -558 l-24 -93 88
-44 89 -45 -16 -52 c-26 -91 -70 -191 -152 -356 -119 -238 -177 -371 -217
-500 -21 -64 -65 -182 -99 -262 -35 -80 -68 -161 -74 -181 l-11 -35 101 -103
101 -102 -27 -35 c-14 -18 -28 -34 -31 -34 -11 0 -115 56 -179 97 -38 24 -124
78 -190 119 -66 42 -208 138 -315 213 -415 293 -382 272 -405 258 -11 -7 -179
-109 -372 -227 l-353 -213 0 -129 c0 -70 4 -128 9 -128 4 0 32 4 61 10 110 21
372 50 540 60 151 10 178 14 196 31 20 19 21 19 95 -32 95 -66 177 -133 363
-298 83 -73 182 -159 221 -190 38 -31 108 -93 155 -137 126 -120 217 -157 336
-139 74 11 142 86 229 253 108 208 148 245 263 241 l66 -2 76 174 c142 324
281 610 463 944 46 86 57 113 49 126 -16 26 -3 30 32 11 17 -9 36 -17 43 -17
6 0 118 -102 250 -226 354 -335 489 -453 650 -570 l83 -60 31 35 c43 50 82 50
106 -1 9 -20 63 -86 120 -146 l103 -109 -49 -61 c-137 -174 -259 -402 -431
-810 -51 -120 -125 -284 -164 -363 -52 -104 -69 -148 -60 -154 24 -21 184 -89
274 -118 158 -50 370 -85 598 -98 l122 -7 0 45 c0 52 -17 99 -67 181 -47 78
-92 108 -224 152 -60 20 -111 40 -114 44 -5 9 15 39 340 501 231 328 411 593
438 645 31 62 48 154 48 269 -1 208 -23 255 -188 397 -61 52 -127 117 -147
144 -36 47 -38 54 -34 108 3 38 12 67 26 87 12 16 22 34 22 39 0 5 -201 177
-447 381 -247 204 -448 377 -448 383 0 12 40 15 80 6 17 -3 21 4 28 56 10 72
3 405 -18 800 -9 161 -14 406 -13 549 l3 259 165 77 c91 43 307 139 480 214
313 136 769 356 789 380 6 7 31 147 56 312 89 589 106 691 137 863 27 147 35
175 51 179 43 11 177 83 247 133 87 61 452 417 444 431 -11 18 -129 68 -160
68 -16 0 -86 -23 -155 -51 -155 -63 -308 -106 -436 -123 -54 -7 -100 -12 -101
-10 -2 1 8 20 22 41 32 47 34 95 4 122 -24 23 -49 21 -108 -9 -69 -34 -172
-113 -195 -149 -74 -118 -141 -281 -240 -581 -118 -359 -178 -499 -279 -655
l-53 -80 -274 -137 c-270 -135 -497 -238 -523 -238 -7 0 -59 20 -115 45 -152
66 -271 136 -271 160 0 19 118 142 167 173 26 17 66 35 89 41 56 15 129 66
155 108 31 49 35 145 15 301 -20 148 -13 214 29 290 14 24 25 46 25 47 0 2
-43 20 -96 41 -102 39 -156 81 -168 129 -6 23 3 37 68 108 77 83 129 166 140
225 5 31 4 33 -17 26 -22 -6 -70 -37 -206 -132 -41 -29 -79 -52 -83 -52 -5 0
-30 16 -56 36 -143 109 -366 164 -534 130 -108 -21 -166 -52 -298 -159 -200
-162 -296 -303 -307 -450 -3 -39 0 -90 5 -112 25 -99 83 -288 97 -314 21 -41
69 -84 110 -98 34 -11 35 -11 35 12 0 66 56 10 66 -66 7 -54 38 -89 79 -89 29
0 100 -56 122 -97 13 -25 15 -37 7 -51 -9 -13 -8 -21 3 -31 18 -16 11 -66 -13
-93 -9 -10 -55 -36 -103 -59 -47 -22 -94 -48 -104 -57 -17 -15 -22 -11 -83 49
-227 222 -406 529 -547 936 -78 223 -297 1036 -297 1101 0 100 47 206 179 407
40 61 92 130 116 155 24 25 48 57 54 72 9 25 8 28 -15 34 -108 27 -287 -78
-390 -229 -24 -36 -27 -37 -44 -22 -9 8 -43 66 -75 128 -48 94 -69 124 -131
182 -45 43 -76 81 -80 100 -8 31 -21 46 -64 69 -49 27 -68 28 -89 7z"/>
<path d="M9295 9590 c-11 -4 -33 -22 -49 -38 -26 -28 -28 -36 -23 -75 10 -72
65 -209 122 -306 l53 -90 -56 -22 c-93 -35 -113 -39 -210 -48 -150 -13 -172
-43 -133 -184 26 -92 26 -99 -2 -134 -15 -17 -30 -57 -39 -103 -9 -41 -24
-110 -34 -152 -23 -102 -12 -140 59 -208 38 -36 69 -56 114 -71 92 -30 113
-50 113 -107 -1 -117 -70 -189 -288 -299 -163 -83 -188 -91 -362 -118 -133
-21 -203 -48 -249 -94 -37 -37 -167 -254 -239 -396 -22 -44 -78 -164 -125
-267 -240 -521 -360 -728 -529 -913 -45 -50 -53 -54 -117 -66 -98 -17 -306 -7
-400 21 -41 11 -104 38 -140 59 -117 68 -169 74 -219 28 l-23 -22 -20 25 c-11
14 -49 86 -85 160 -142 293 -135 280 -161 280 -76 0 -114 -59 -133 -212 -23
-182 -44 -194 -315 -183 -298 13 -340 9 -330 -28 16 -57 78 -166 115 -202 22
-22 50 -58 61 -81 43 -89 127 -144 249 -163 36 -6 136 -11 223 -11 l159 0 66
-61 c292 -269 711 -401 1168 -369 158 12 188 17 245 46 92 46 142 120 249 366
43 100 107 203 125 200 17 -2 25 -70 32 -267 6 -207 3 -252 -52 -645 -18 -135
-36 -271 -39 -302 -3 -32 -9 -83 -12 -113 l-5 -55 43 -1 c85 -1 88 14 -67
-309 -153 -317 -241 -480 -334 -618 -34 -52 -65 -111 -75 -147 -33 -114 -66
-155 -126 -155 -14 0 -20 -6 -20 -23 0 -33 18 -47 61 -47 21 0 49 -4 63 -10
57 -21 55 -28 -123 -323 -159 -261 -169 -281 -182 -354 -17 -97 -17 -296 0
-388 19 -101 91 -311 156 -455 180 -399 221 -503 246 -629 9 -50 9 -74 -1
-119 -27 -123 -80 -185 -294 -346 -177 -133 -253 -214 -284 -303 -10 -30 -8
-34 30 -68 56 -51 92 -64 206 -71 231 -15 475 49 737 193 75 41 311 188 333
208 1 1 6 32 11 69 16 134 -31 281 -121 381 l-45 50 -12 214 c-14 262 -41 480
-87 711 -41 205 -40 242 12 350 34 72 53 99 197 283 42 54 88 117 102 140 l25
43 317 13 c418 16 520 28 597 69 66 36 100 40 136 15 42 -29 57 -54 111 -176
60 -136 109 -198 172 -221 39 -14 242 -36 812 -87 167 -15 340 -23 633 -26
l402 -5 44 -30 c64 -42 150 -138 236 -262 124 -181 199 -250 307 -282 44 -13
48 -13 69 7 39 37 83 132 93 203 16 114 -2 204 -89 441 -32 88 -61 183 -65
210 -24 192 -100 278 -245 278 -73 0 -136 -18 -256 -73 l-81 -37 -45 23 c-76
39 -272 102 -397 128 -167 36 -337 55 -535 61 -213 7 -228 10 -266 42 -36 30
-58 70 -76 138 l-13 50 37 38 c24 26 84 62 177 108 156 76 242 141 231 174 -4
11 -18 32 -31 48 -23 26 -29 27 -91 25 l-66 -3 -33 115 c-39 137 -98 298 -232
635 -100 250 -159 415 -183 512 l-13 51 33 28 c48 41 89 86 96 106 3 9 -13 75
-36 145 -89 276 -155 597 -184 890 -19 191 -23 253 -14 253 14 0 283 -122 363
-164 45 -23 96 -48 115 -55 19 -6 91 -43 160 -81 147 -81 207 -99 280 -82 85
20 259 146 595 432 258 219 405 332 532 409 28 17 53 37 56 44 3 7 -2 31 -10
52 -9 22 -17 56 -20 76 -5 40 -6 39 122 90 131 51 334 215 488 393 53 62 59
73 54 103 -15 92 -93 129 -256 120 -107 -5 -200 -34 -309 -94 -35 -20 -64 -34
-66 -32 -2 2 -24 41 -50 86 -43 75 -51 83 -93 97 -56 19 -94 20 -115 4 -12 -9
-22 -58 -38 -173 -11 -88 -23 -169 -25 -181 -7 -31 -183 -167 -415 -320 -113
-75 -265 -176 -339 -226 l-134 -90 -234 234 c-163 162 -241 247 -256 278 -36
77 -120 147 -286 238 -83 46 -161 92 -173 102 l-22 17 35 18 c49 26 98 35 127
24 15 -6 60 -10 102 -10 97 -1 174 24 315 101 61 33 138 75 173 92 76 39 107
89 96 156 -7 45 -62 150 -86 166 -25 15 -62 -15 -76 -62 -18 -60 -33 -68 -86
-48 -24 9 -51 25 -61 36 -22 24 -55 158 -55 221 l0 47 133 -58 c133 -58 404
-160 424 -160 17 0 93 188 107 261 6 34 4 37 -26 49 -31 12 -396 199 -427 219
-11 7 -8 20 15 67 26 52 29 70 29 154 0 85 -3 102 -29 155 -59 121 -231 254
-413 318 -82 29 -98 31 -223 32 -123 0 -143 -3 -221 -29 l-86 -29 -32 34 c-32
35 -113 152 -143 207 -40 75 -206 135 -283 102z"/>
</g>
</svg>
