<?xml version="1.0" standalone="no"?>
<!DOCTYPE svg PUBLIC "-//W3C//DTD SVG 20010904//EN"
 "http://www.w3.org/TR/2001/REC-SVG-20010904/DTD/svg10.dtd">
<svg version="1.0" xmlns="http://www.w3.org/2000/svg"
 width="1280.000000pt" height="810.000000pt" viewBox="0 0 1280.000000 810.000000"
 preserveAspectRatio="xMidYMid meet">
<metadata>
Created by potrace 1.15, written by Peter Selinger 2001-2017
</metadata>
<g transform="translate(0.000000,810.000000) scale(0.100000,-0.100000)"
fill="#000000" stroke="none">
<path d="M1220 7995 c-19 -14 -42 -25 -51 -25 -26 0 -58 -32 -65 -65 -5 -30
-5 -30 41 -33 66 -4 92 -16 97 -47 4 -21 0 -30 -21 -42 -77 -47 -105 -71 -151
-127 -82 -99 -109 -164 -117 -277 -6 -94 -5 -97 40 -235 26 -76 49 -158 53
-181 13 -86 -32 -238 -89 -300 -11 -13 -36 -26 -56 -29 -35 -6 -103 -41 -109
-55 -2 -4 -25 -36 -51 -71 -73 -96 -79 -114 -101 -285 -11 -87 -25 -169 -30
-183 -5 -14 -20 -79 -34 -145 -14 -66 -32 -145 -41 -175 -12 -43 -14 -95 -11
-235 5 -240 -5 -360 -33 -389 -12 -12 -21 -28 -21 -35 0 -7 -11 -27 -24 -44
-29 -39 -35 -66 -20 -98 29 -61 32 -77 23 -125 -5 -27 -14 -61 -20 -75 -7 -18
-7 -71 0 -170 10 -161 25 -210 82 -269 136 -143 524 -572 523 -579 -1 -13 -71
-53 -111 -64 -47 -12 -50 -19 -28 -57 18 -31 19 -71 3 -106 -11 -24 -10 -29
20 -55 18 -16 41 -29 51 -29 25 0 28 -12 36 -143 6 -92 11 -112 32 -145 14
-20 34 -43 44 -50 11 -7 19 -24 19 -38 0 -29 85 -134 109 -134 21 -1 42 -18
64 -53 10 -15 29 -33 43 -39 13 -6 24 -17 24 -25 0 -7 13 -32 30 -55 17 -22
30 -47 30 -54 0 -8 46 -68 101 -135 l102 -121 -6 -74 c-4 -58 -2 -76 8 -80 9
-4 12 -16 8 -40 -5 -27 -1 -40 17 -59 23 -25 50 -32 64 -18 4 4 28 7 53 8 l45
0 107 -130 c59 -71 110 -136 115 -143 4 -7 -1 -24 -12 -40 -48 -70 -88 -155
-165 -354 -56 -143 -106 -254 -150 -331 -61 -104 -75 -120 -142 -171 -130 -98
-133 -128 -36 -322 38 -77 79 -152 90 -169 28 -40 27 -43 -16 -50 -21 -3 -63
-12 -93 -20 -30 -8 -102 -21 -160 -30 -105 -16 -289 -67 -620 -172 -151 -48
-367 -142 -440 -192 -10 -7 1954 -11 6258 -11 l6272 0 0 324 c0 274 -2 325
-15 329 -8 4 -55 1 -104 -5 -76 -9 -100 -9 -158 6 -37 9 -79 16 -92 16 -42 0
-103 -45 -194 -144 -49 -53 -101 -103 -117 -111 -44 -23 -101 -28 -215 -20
-114 8 -120 16 -32 44 l37 13 0 69 0 69 -51 26 -51 26 25 26 c30 33 69 109
103 202 29 80 64 149 121 237 107 164 194 457 224 751 14 134 5 442 -15 539
-9 40 -28 148 -42 240 -33 210 -85 368 -194 589 -92 187 -128 238 -287 399
-118 120 -156 147 -321 230 -78 40 -79 41 -58 64 21 23 16 44 -25 100 -91 127
-353 192 -597 150 -146 -25 -161 -24 -287 20 l-110 38 4 69 c2 38 5 92 6 119
1 28 6 75 10 106 8 61 -12 123 -43 134 -10 3 -29 26 -44 50 -30 49 -48 55 -78
25 -21 -21 -65 -26 -90 -10 -8 5 -14 21 -15 37 0 23 -5 29 -29 33 -17 3 -29 7
-29 10 1 3 4 17 8 31 5 20 -4 47 -33 105 -52 102 -122 180 -189 210 l-51 23
-7 63 c-12 117 25 173 123 185 60 7 110 36 128 73 78 161 98 223 93 285 -2 22
5 38 24 57 15 15 27 33 27 40 0 20 -29 58 -44 58 -8 0 -24 8 -37 19 -20 16
-23 28 -24 92 -1 64 -7 85 -42 159 -22 47 -47 93 -55 104 -13 16 -12 23 8 62
12 24 36 56 54 70 17 15 45 56 62 93 37 81 45 198 16 243 -35 54 -129 34 -218
-46 -19 -17 -51 -37 -70 -44 -19 -7 -51 -22 -72 -32 l-36 -20 -39 40 c-44 43
-48 44 -266 41 -82 0 -119 -5 -155 -20 -26 -11 -71 -24 -100 -30 -73 -15 -91
-30 -177 -143 -83 -109 -102 -156 -125 -307 -13 -87 -5 -170 26 -268 8 -23 11
-50 7 -58 -6 -17 9 -76 33 -134 14 -31 90 -132 106 -139 4 -2 23 -25 41 -50
41 -57 55 -131 33 -174 -8 -16 -15 -36 -15 -45 0 -10 -3 -30 -6 -44 -5 -17 -2
-31 8 -41 16 -16 13 -26 -25 -80 -30 -41 -58 -207 -57 -332 1 -203 12 -266 78
-456 33 -96 67 -188 76 -205 8 -16 19 -65 25 -108 5 -43 17 -89 26 -102 12
-18 13 -29 6 -38 -7 -8 -10 -50 -9 -102 2 -82 0 -94 -26 -137 -15 -27 -34 -48
-41 -48 -28 0 -75 -62 -87 -116 -14 -62 -6 -79 45 -92 26 -7 32 -14 37 -44 3
-20 13 -48 22 -62 20 -30 21 -69 5 -130 -14 -54 2 -116 59 -224 41 -79 64
-106 116 -135 42 -23 77 -79 77 -122 0 -18 17 -44 51 -80 l51 -54 -12 -53
c-29 -131 -29 -528 0 -728 6 -41 13 -100 16 -130 2 -30 20 -102 39 -160 l36
-105 -67 -128 c-73 -140 -120 -195 -213 -249 -31 -18 -64 -36 -73 -40 -53 -22
-75 -134 -39 -195 22 -35 140 -164 186 -202 33 -28 132 -128 183 -184 l33 -37
-40 0 c-22 0 -75 -7 -118 -15 -126 -24 -149 -21 -216 28 -31 23 -89 62 -128
86 l-70 43 -82 -21 c-131 -33 -209 -40 -327 -26 -134 15 -192 43 -281 136 -36
38 -70 79 -76 91 -50 103 -72 167 -88 255 -19 108 -19 112 14 358 35 262 66
675 58 792 -6 111 -19 149 -122 358 -109 221 -201 366 -349 548 -67 82 -136
171 -154 198 -18 26 -41 53 -52 59 -34 18 -53 66 -40 104 14 43 5 64 -32 74
-27 7 -32 16 -71 133 -40 117 -96 225 -151 286 -14 17 -23 51 -33 134 -14 113
-34 170 -77 219 -22 24 -22 28 -12 137 10 101 14 115 39 140 15 16 27 34 27
40 0 6 6 13 14 16 7 3 18 25 24 49 7 25 24 55 42 72 39 36 73 101 65 125 -3
10 1 33 9 52 11 29 11 44 -1 103 -16 77 -49 131 -102 167 -45 31 -131 35 -184
8 -21 -10 -53 -19 -73 -19 -24 0 -36 -5 -40 -17 -3 -10 -12 -30 -20 -45 -8
-14 -14 -35 -14 -47 0 -11 -16 -35 -35 -54 -39 -38 -60 -89 -70 -172 -7 -51
-13 -63 -51 -100 -24 -23 -44 -49 -44 -59 0 -14 -8 -11 -41 16 -22 18 -51 39
-63 45 -15 8 -27 28 -34 55 -10 39 -9 45 14 75 33 43 71 128 80 178 4 22 17
54 30 71 13 16 30 47 39 67 17 41 20 123 5 132 -6 3 -10 23 -10 45 0 27 -7 44
-25 61 -13 13 -25 32 -25 41 0 10 -20 26 -55 42 -46 21 -55 29 -55 51 0 14 -7
39 -15 55 -19 36 -51 39 -89 9 -26 -20 -26 -20 -53 -1 -110 78 -214 115 -293
105 -40 -5 -43 -4 -27 9 15 11 17 20 10 48 -13 51 -48 71 -126 73 -62 2 -66 1
-100 -34 -19 -20 -42 -50 -51 -67 -15 -29 -17 -30 -47 -19 -30 12 -33 10 -75
-36 -24 -27 -44 -57 -44 -67 0 -10 19 -34 41 -53 47 -38 46 -46 -12 -83 -22
-14 -43 -33 -46 -42 -3 -9 -21 -51 -40 -92 -24 -53 -37 -100 -45 -160 -5 -47
-13 -98 -16 -113 l-7 -28 -35 26 c-31 23 -35 31 -36 75 -1 56 -47 161 -88 199
l-25 23 30 41 c16 22 29 47 29 57 0 9 11 31 25 50 14 19 34 57 44 84 11 28 35
85 55 126 20 41 36 88 36 105 0 30 -53 232 -72 271 -7 15 -6 27 3 42 12 19 11
24 -2 38 -14 13 -14 21 -6 45 13 33 2 69 -72 239 -71 164 -148 233 -292 259
-30 6 -74 15 -99 20 -142 32 -337 -9 -464 -97 -31 -22 -55 -28 -117 -33 -61
-4 -86 -11 -118 -32 -23 -15 -41 -35 -41 -45 0 -10 -8 -29 -17 -42 -17 -23
-27 -54 -53 -150 -18 -67 -11 -190 16 -263 13 -38 29 -78 35 -90 12 -22 38
-122 38 -147 1 -10 -6 -7 -18 9 -23 30 -41 20 -41 -23 0 -21 8 -40 23 -53 29
-26 122 -47 147 -33 16 9 23 2 50 -45 17 -30 51 -71 75 -93 24 -21 54 -59 66
-85 22 -45 22 -47 4 -67 -17 -19 -59 -109 -90 -192 -11 -31 -11 -39 0 -55 20
-25 18 -31 -7 -26 -22 4 -69 -13 -113 -40 -27 -16 -35 -28 -35 -53 0 -13 -24
-45 -60 -80 -33 -33 -60 -64 -60 -71 0 -20 -61 -83 -80 -83 -28 0 -47 -34 -86
-155 -56 -174 -77 -313 -55 -370 4 -10 2 -46 -4 -80 -7 -33 -16 -114 -19 -179
-4 -66 -12 -129 -18 -140 -17 -30 -10 -167 8 -187 11 -13 14 -41 12 -125 l-3
-109 -85 3 c-172 6 -480 72 -480 102 0 4 -37 36 -82 70 -46 35 -121 100 -168
145 -47 45 -119 106 -160 137 -41 30 -102 78 -135 106 -33 28 -94 70 -135 92
-127 68 -169 106 -241 215 -59 89 -67 109 -81 185 l-16 85 34 79 c38 89 40
106 20 228 -21 129 -8 214 44 292 22 32 40 70 40 84 0 18 4 23 16 18 62 -24
102 -12 174 51 25 22 56 46 70 53 40 21 151 113 197 163 82 89 102 157 77 264
-17 70 -17 74 1 107 17 32 18 41 7 82 -12 45 -12 48 13 74 29 31 31 49 8 93
-21 41 -102 295 -96 301 3 2 19 2 36 -1 40 -6 74 12 116 60 l33 37 -29 29
c-28 26 -166 91 -195 91 -7 0 -58 22 -113 49 -203 100 -200 99 -318 100 -82 1
-116 -2 -143 -15 -19 -9 -37 -14 -41 -11 -3 4 -20 0 -37 -7 -17 -7 -48 -16
-69 -20 -21 -4 -59 -20 -85 -36 -26 -16 -57 -34 -68 -39 -12 -5 -26 -24 -32
-41 -6 -17 -21 -44 -32 -60 -12 -17 -18 -34 -15 -40 4 -6 -3 -25 -14 -43 -34
-56 -60 -179 -66 -312 -1 -22 -2 -51 -3 -64 l-2 -25 -23 30 c-12 16 -85 91
-162 167 -129 127 -144 140 -195 153 -30 8 -62 14 -72 14 -9 0 -29 11 -44 25
-15 14 -22 25 -16 25 15 0 111 -26 146 -39 21 -9 38 -9 62 -1 35 12 94 71 94
95 0 7 11 27 25 43 14 17 25 38 25 49 0 24 48 100 85 133 45 41 54 71 56 171
1 51 6 101 13 111 8 13 8 23 -1 38 -18 28 -7 45 37 63 52 20 88 74 129 194 33
96 34 103 21 143 -26 78 -38 86 -131 89 -76 1 -89 5 -156 42 -66 36 -72 43
-67 65 3 13 1 31 -6 38 -8 10 -8 20 -2 33 8 14 3 32 -21 77 -28 51 -38 61 -76
73 -55 18 -84 11 -128 -32 -43 -42 -62 -44 -94 -9 -74 80 -185 106 -249 59z
m465 -2032 c39 -27 107 -70 153 -93 45 -24 82 -50 82 -57 0 -41 -167 -171
-235 -184 -24 -4 -83 -26 -131 -48 -86 -39 -89 -40 -98 -20 -7 14 -3 41 13 92
34 108 43 130 59 149 11 13 13 41 9 127 -2 66 0 114 6 120 6 6 20 2 41 -13 17
-12 63 -45 101 -73z m3824 -1156 c0 -29 2 -70 5 -92 l6 -40 -21 45 c-12 25
-25 54 -29 65 -4 11 -13 33 -19 48 -12 31 -14 76 -5 101 5 12 13 5 35 -29 23
-37 29 -57 28 -98z m244 -159 l48 -46 -26 -61 c-14 -33 -25 -67 -25 -75 0 -31
-20 -25 -38 11 -13 24 -18 50 -15 71 3 18 1 38 -4 45 -6 6 -13 39 -17 71 -7
68 -9 68 77 -16z m290 -601 c13 -41 -4 -55 -37 -31 -38 28 -33 68 8 62 11 -2
23 -15 29 -31z m4385 -198 c28 -6 52 -12 52 -15 0 -4 -116 -64 -124 -64 -6 0
-56 84 -56 94 0 7 28 4 128 -15z m587 -119 c287 -43 342 -53 365 -65 49 -25
186 -143 242 -207 112 -129 163 -210 295 -471 37 -73 128 -536 142 -719 32
-423 -13 -792 -109 -902 -16 -18 -32 -45 -36 -62 -15 -62 -108 -252 -168 -343
-34 -53 -72 -112 -84 -132 -46 -75 -50 -76 -124 -5 -82 79 -108 124 -147 256
-33 112 -31 90 -71 860 -11 223 -26 267 -155 445 -101 140 -99 134 -74 194 12
28 27 51 34 51 24 0 39 29 27 54 -7 17 -27 27 -76 40 -55 15 -69 24 -87 52
-11 19 -29 39 -39 44 -10 5 -21 22 -24 36 -4 15 -20 46 -35 68 -16 23 -35 57
-44 77 -16 39 -55 73 -163 142 -40 25 -87 64 -105 87 -31 39 -34 47 -30 98 2
41 8 60 22 70 22 15 23 30 7 83 -12 42 -30 49 -62 24 -36 -27 -62 -19 -74 24
-7 21 -12 40 -12 43 0 8 191 95 260 118 139 47 218 57 325 40z m-8212 -41 c72
-37 130 -75 193 -130 25 -22 92 -63 148 -90 121 -61 159 -96 232 -211 68 -107
85 -115 176 -87 35 11 126 35 203 54 77 19 180 47 228 63 l88 29 111 -109 c61
-59 136 -125 165 -145 45 -31 53 -41 47 -58 -4 -11 -8 -141 -9 -290 -2 -248
-1 -274 18 -324 14 -40 18 -68 14 -107 -3 -30 -2 -68 3 -86 14 -55 19 -240 8
-281 -14 -47 4 -106 45 -150 27 -29 29 -36 24 -88 -8 -87 -9 -88 -217 -313
-42 -44 -123 -139 -180 -211 -122 -152 -127 -158 -204 -187 -125 -49 -171
-154 -130 -295 5 -20 3 -23 -22 -23 -16 0 -47 -11 -69 -25 -22 -13 -54 -25
-70 -25 -17 0 -48 -9 -69 -20 l-38 -19 -69 23 c-64 22 -71 22 -136 9 -64 -14
-96 -13 -201 3 -36 5 -49 2 -74 -16 -25 -19 -34 -20 -55 -11 -13 6 -34 11 -46
11 -13 0 -28 5 -35 12 -10 10 -19 8 -43 -6 -17 -10 -33 -16 -35 -13 -3 3 -16
37 -30 76 -43 124 -74 304 -84 486 -10 187 -25 339 -40 427 -6 31 -14 108 -19
169 -8 112 -8 113 22 178 36 79 36 95 8 430 l-20 235 62 57 c55 52 106 84 160
103 35 11 32 38 -7 69 l-37 29 78 34 c84 37 146 81 152 109 2 10 9 25 17 32
14 15 9 43 -10 44 -6 0 -65 4 -131 8 -102 6 -134 12 -209 41 -88 33 -89 34
-133 102 -25 39 -52 97 -62 135 -10 38 -33 97 -50 131 -18 35 -30 69 -27 75 3
7 10 19 15 27 5 8 12 23 15 33 4 13 16 17 48 17 31 0 63 11 115 40 39 22 75
45 78 50 10 15 23 12 88 -21z m3210 -65 c113 -46 118 -49 129 -85 10 -36 9
-40 -21 -68 -23 -22 -31 -39 -33 -68 -3 -70 3 -128 19 -183 9 -30 17 -78 17
-107 1 -33 8 -59 19 -71 9 -10 17 -23 17 -29 0 -6 7 -13 15 -17 11 -4 15 -20
15 -58 0 -57 29 -149 56 -179 9 -10 33 -19 53 -21 l36 -3 2 -55 c1 -30 2 -63
2 -72 1 -20 50 -48 90 -52 25 -3 27 -9 52 -112 53 -219 63 -392 29 -509 -51
-175 -69 -287 -95 -575 -19 -206 -72 -453 -110 -509 -17 -23 -22 -43 -18 -59
4 -18 -3 -32 -31 -61 -61 -63 -59 -134 9 -236 33 -50 54 -115 38 -115 -14 0
-65 58 -139 160 -84 114 -114 167 -142 242 -41 110 -45 172 -22 356 24 194 45
556 44 757 0 105 -4 151 -17 182 l-16 43 32 16 c42 22 77 54 77 72 0 24 -60
122 -75 122 -17 0 -23 18 -18 55 6 44 -41 246 -82 350 -19 49 -35 96 -35 103
0 7 -9 31 -21 53 -11 23 -18 43 -15 46 3 3 1 14 -5 25 -16 30 -2 52 45 75 40
20 46 27 61 79 53 182 44 272 -44 447 -32 65 -54 116 -47 114 6 -3 64 -26 129
-53z m-1530 -66 c8 -63 4 -70 -17 -29 -20 37 -21 81 -2 81 9 0 15 -18 19 -52z
m1193 -183 c8 -31 -3 -78 -16 -70 -13 8 -13 95 0 95 5 0 12 -11 16 -25z m1603
-865 c51 -42 104 -102 271 -300 52 -62 145 -218 165 -278 19 -55 24 -98 30
-242 4 -96 20 -280 36 -407 16 -128 29 -259 29 -290 0 -61 -42 -343 -60 -403
-15 -51 -12 -106 6 -124 22 -23 15 -24 -206 -29 -158 -4 -229 -11 -374 -36
-98 -17 -198 -36 -222 -42 -65 -17 -170 -8 -193 16 -67 72 -101 343 -65 521
46 231 84 385 134 539 11 33 36 139 55 235 44 217 58 266 101 352 33 66 34 69
34 200 0 73 4 176 8 228 l7 95 67 0 c36 0 70 3 74 8 17 16 46 4 103 -43z
m-2099 -131 c0 -18 8 -29 25 -37 33 -15 32 -35 -6 -118 -53 -116 -39 -177 43
-190 35 -6 37 -9 32 -33 -11 -44 -34 -95 -53 -116 -11 -11 -31 -43 -45 -72
-24 -49 -56 -79 -75 -71 -5 2 -3 28 4 58 29 125 31 157 18 196 -15 42 -7 104
25 199 12 35 16 79 15 145 -2 63 1 90 7 80 5 -8 10 -27 10 -41z m5212 -140
c35 -78 52 -89 110 -64 74 30 96 23 185 -62 44 -43 93 -98 109 -122 27 -42 29
-52 32 -160 1 -64 7 -138 12 -164 6 -26 10 -80 10 -118 0 -74 11 -109 35 -109
24 0 76 -180 86 -300 5 -58 14 -140 19 -183 11 -88 10 -98 -32 -261 -16 -66
-28 -132 -26 -148 3 -18 1 -27 -6 -25 -6 2 -60 19 -121 37 -60 18 -112 37
-115 41 -3 4 -41 21 -85 37 -200 74 -292 137 -450 311 -96 105 -207 249 -201
259 2 4 46 64 98 134 101 139 207 325 289 513 70 159 75 220 30 350 -17 49
-31 95 -31 103 0 27 22 -2 52 -69z m-682 -17 c87 -9 89 -10 104 -61 16 -55 9
-145 -17 -217 -17 -45 -65 -144 -71 -144 -15 0 -66 336 -66 430 0 43 1 44 13
20 7 -15 23 -26 37 -28z m-4212 -272 c18 -11 37 -32 43 -48 5 -15 18 -45 28
-67 10 -22 22 -49 26 -60 5 -11 9 -105 10 -210 1 -160 6 -214 29 -340 38 -205
33 -329 -21 -501 -53 -173 -54 -186 -7 -232 22 -21 50 -45 64 -54 23 -16 24
-17 4 -17 -11 -1 -30 -12 -42 -25 -35 -41 -94 -51 -187 -32 -100 20 -145 20
-237 0 -112 -25 -109 -26 -124 31 -8 28 -18 74 -22 102 -10 60 -7 55 -49 77
-40 20 -125 20 -218 1 -91 -20 -155 -20 -155 -1 0 8 -6 21 -14 28 -7 8 -17 24
-20 36 -8 25 -44 37 -84 27 -61 -15 -311 -20 -325 -6 -6 6 6 18 29 30 22 12
48 27 59 34 11 6 41 25 68 41 26 16 47 35 47 41 0 7 19 25 43 40 23 16 48 37
55 47 14 20 42 24 58 8 7 -7 24 -4 52 7 41 16 42 17 42 63 0 41 6 53 46 101
26 30 57 70 69 89 12 19 61 74 108 121 48 48 91 98 96 112 6 14 63 73 128 131
65 57 146 138 181 178 61 72 145 197 162 244 11 29 16 29 58 4z m-3273 -887
c78 -182 86 -205 105 -295 10 -51 22 -141 26 -200 l7 -108 -161 0 c-186 0
-171 -8 -217 115 -29 76 -29 114 -2 218 20 76 96 228 149 299 24 32 46 58 49
58 4 0 24 -39 44 -87z m7662 -175 c39 -46 83 -94 98 -108 15 -14 63 -59 106
-100 75 -72 108 -93 319 -204 l85 -44 -105 1 c-58 1 -153 -2 -211 -6 l-105 -9
-25 36 c-27 41 -79 69 -160 86 l-55 12 -31 67 c-45 93 -50 158 -23 257 22 77
28 94 35 94 1 0 34 -37 72 -82z m-6044 -445 c18 -45 42 -191 34 -200 -4 -3
-50 -7 -104 -8 -86 -3 -112 1 -213 30 -63 19 -137 40 -165 48 l-50 13 32 17
c18 10 55 17 85 17 34 0 75 10 113 26 33 14 90 36 127 49 37 13 75 28 85 34
30 17 40 13 56 -26z"/>
</g>
</svg>
